<svg id="eK9OUd7vHfR1" xmlns="http://www.w3.org/2000/svg" xmlns:xlink="http://www.w3.org/1999/xlink" viewBox="0 0 48 48" shape-rendering="geometricPrecision" text-rendering="geometricPrecision"><path d="M24,19.3l-2.1-2.1l3.7-3.7h-9.1v-3h9.1L21.9,6.8L24,4.7L31.3,12ZM14.5,44q-1.5,0-2.55-1.05t-1.05-2.55t1.05-2.55t2.55-1.05t2.55,1.05t1.05,2.55-1.05,2.55-2.55,1.05Zm20.2,0q-1.5,0-2.55-1.05t-1.05-2.55t1.05-2.55t2.55-1.05t2.55,1.05t1.05,2.55-1.05,2.55-2.55,1.05ZM3.1,7v-3h5.8l8.5,18.2h14.4l8-14h3.35l-8.1,15.15q-.55.95-1.425,1.525t-1.925.575h-15.15l-2.8,5.2h24.55v3h-24.1q-1.9,0-2.875-1.5t-.125-3.05l3.2-5.9L7,7Z" fill="#fff"/></svg>
